<svg width="16" height="16" viewBox="0 0 16 16" fill="none" xmlns="http://www.w3.org/2000/svg">
<path d="M15.3299 15.3335L15.3334 15.3329V10.1984C15.3334 7.68656 14.7926 5.75165 11.8561 5.75165C10.4444 5.75165 9.49711 6.52631 9.11036 7.26073H9.06953V5.98615H6.28528V15.3329H9.18444V10.7047C9.18444 9.48615 9.41544 8.30781 10.9245 8.30781C12.4114 8.30781 12.4336 9.69848 12.4336 10.7829V15.3335H15.3299Z" fill="#504F4F"/>
<path d="M1.56433 5.98663H4.467V15.3334H1.56433V5.98663Z" fill="#504F4F"/>
<path d="M3.01451 1.33334C2.08643 1.33334 1.33334 2.08643 1.33334 3.01451C1.33334 3.94259 2.08643 4.71142 3.01451 4.71142C3.94259 4.71142 4.69567 3.94259 4.69567 3.01451C4.69509 2.08643 3.94201 1.33334 3.01451 1.33334Z" fill="#504F4F"/>
</svg>
