<svg width="20" height="20" viewBox="0 0 20 20" fill="none" xmlns="http://www.w3.org/2000/svg">
<path d="M19.1623 19.1667L19.1667 19.166V12.7479C19.1667 9.6081 18.4907 7.18945 14.8201 7.18945C13.0555 7.18945 11.8714 8.15779 11.3879 9.07581H11.3369V7.48258H7.85657V19.166H11.4805V13.3808C11.4805 11.8576 11.7693 10.3847 13.6556 10.3847C15.5143 10.3847 15.542 12.123 15.542 13.4785V19.1667H19.1623Z" fill="#1F1F1F"/>
<path d="M1.95541 7.48291H5.58375V19.1663H1.95541V7.48291Z" fill="#1F1F1F"/>
<path d="M3.76813 1.6665C2.60803 1.6665 1.66667 2.60786 1.66667 3.76796C1.66667 4.92806 2.60803 5.88911 3.76813 5.88911C4.92823 5.88911 5.86959 4.92806 5.86959 3.76796C5.86886 2.60786 4.9275 1.6665 3.76813 1.6665Z" fill="#1F1F1F"/>
</svg>
