<svg width="50" height="50" viewBox="0 0 50 50" fill="none" xmlns="http://www.w3.org/2000/svg">
<g clip-path="url(#clip0_187_1426)">
<rect width="50" height="50" rx="25" fill="white"/>
<g clip-path="url(#clip1_187_1426)">
<path d="M25 49.9995C38.8071 49.9995 50 38.8066 50 24.9995C50 11.1924 38.8071 -0.000488281 25 -0.000488281C11.1929 -0.000488281 0 11.1924 0 24.9995C0 38.8066 11.1929 49.9995 25 49.9995Z" fill="#007AB9"/>
<path d="M39.9369 27.0111V37.3181H33.9612V27.7019C33.9612 25.2873 33.0985 23.6384 30.9348 23.6384C29.2837 23.6384 28.3028 24.7485 27.8697 25.8234C27.7123 26.2076 27.6718 26.741 27.6718 27.2798V37.3176H21.6956C21.6956 37.3176 21.7759 21.0309 21.6956 19.3451H27.6722V21.8919C27.6602 21.912 27.6433 21.9316 27.6326 21.9508H27.6722V21.8919C28.4664 20.67 29.8827 18.923 33.0579 18.923C36.9894 18.923 39.9369 21.4917 39.9369 27.0111ZM15.4441 10.6816C13.3999 10.6816 12.0625 12.0235 12.0625 13.7865C12.0625 15.512 13.3611 16.8926 15.3656 16.8926H15.4044C17.4887 16.8926 18.7847 15.512 18.7847 13.7865C18.745 12.0235 17.4887 10.6816 15.4441 10.6816ZM12.4177 37.3181H18.3916V19.3451H12.4177V37.3181Z" fill="#F1F2F2"/>
</g>
</g>
<defs>
<clipPath id="clip0_187_1426">
<rect width="50" height="50" rx="25" fill="white"/>
</clipPath>
<clipPath id="clip1_187_1426">
<rect width="50" height="50" fill="white"/>
</clipPath>
</defs>
</svg>
