<svg width="50" height="50" viewBox="0 0 50 50" fill="none" xmlns="http://www.w3.org/2000/svg">
<path d="M50 25C50 11.1929 38.8071 0 25 0C11.1929 0 0 11.1929 0 25C0 38.8071 11.1929 50 25 50C38.8071 50 50 38.8071 50 25Z" fill="url(#paint0_linear_187_1413)"/>
<path opacity="0.1" d="M43.8155 8.55281C40.1708 15.2436 35.0162 22.1449 28.5754 28.5857C22.1346 35.0265 15.2333 40.1712 8.55235 43.816C8.13349 43.4519 7.7267 43.0725 7.33196 42.6778C4.94596 40.3715 3.043 37.6132 1.73405 34.5638C0.425097 31.5144 -0.263658 28.2349 -0.292053 24.9166C-0.320449 21.5982 0.312084 18.3074 1.56866 15.2361C2.82524 12.1647 4.68072 9.37427 7.0269 7.02744C9.37308 4.6806 12.163 2.82435 15.234 1.56691C18.305 0.309476 21.5956 -0.323976 24.914 -0.296507C28.2323 -0.269038 31.512 0.418802 34.5618 1.7269C37.6115 3.03501 40.3703 4.93719 42.6774 7.32255C43.0721 7.71728 43.4515 8.12737 43.8155 8.55281Z" fill="white"/>
<path d="M30.9207 11.8423H19.0786C17.1593 11.8423 15.3186 12.6047 13.9614 13.9619C12.6042 15.3191 11.8418 17.1598 11.8418 19.0791V30.9212C11.8418 32.8406 12.6042 34.6813 13.9614 36.0385C15.3186 37.3956 17.1593 38.1581 19.0786 38.1581H30.9207C32.8401 38.1581 34.6808 37.3956 36.038 36.0385C37.3951 34.6813 38.1576 32.8406 38.1576 30.9212V19.0791C38.1576 17.1598 37.3951 15.3191 36.038 13.9619C34.6808 12.6047 32.8401 11.8423 30.9207 11.8423ZM35.855 29.8818C35.855 31.4661 35.2256 32.9855 34.1053 34.1058C32.985 35.2261 31.4656 35.8554 29.8813 35.8554H20.1181C18.5338 35.8554 17.0144 35.2261 15.8941 34.1058C14.7738 32.9855 14.1444 31.4661 14.1444 29.8818V20.1186C14.1444 18.5343 14.7738 17.0149 15.8941 15.8946C17.0144 14.7743 18.5338 14.1449 20.1181 14.1449H29.8813C31.4656 14.1449 32.985 14.7743 34.1053 15.8946C35.2256 17.0149 35.855 18.5343 35.855 20.1186V29.8818Z" fill="white"/>
<path d="M29.8003 20.25L29.7378 20.1875L29.6852 20.1349C28.4415 18.8954 26.7569 18.1999 25.001 18.2007C24.1143 18.2067 23.2375 18.3874 22.4206 18.7324C21.6037 19.0774 20.8629 19.58 20.2403 20.2114C19.6177 20.8428 19.1257 21.5907 18.7923 22.4124C18.4588 23.234 18.2906 24.1133 18.2971 25C18.2957 26.7995 19.0051 28.5268 20.2707 29.8059C20.8907 30.4335 21.6295 30.9312 22.4439 31.27C23.2583 31.6089 24.1321 31.7821 25.0142 31.7796C26.3373 31.7519 27.6238 31.3397 28.7167 30.5934C29.8096 29.847 30.6618 28.7988 31.1692 27.5765C31.6766 26.3542 31.8173 25.0106 31.5743 23.7097C31.3312 22.4088 30.7149 21.2067 29.8003 20.25ZM25.001 29.4606C24.1162 29.473 23.2478 29.2219 22.5061 28.7394C21.7644 28.2569 21.1829 27.5646 20.8357 26.7507C20.4885 25.9369 20.3912 25.0381 20.5562 24.1688C20.7212 23.2994 21.141 22.4988 21.7623 21.8687C22.3835 21.2386 23.1781 20.8076 24.0451 20.6303C24.912 20.4531 25.812 20.5377 26.6307 20.8734C27.4494 21.2091 28.1498 21.7807 28.6427 22.5155C29.1357 23.2503 29.3989 24.1152 29.399 25C29.4034 25.5818 29.293 26.1586 29.0743 26.6977C28.8556 27.2367 28.5328 27.7274 28.1243 28.1417C27.7159 28.5559 27.2298 28.8856 26.6939 29.1119C26.158 29.3382 25.5827 29.4567 25.001 29.4606Z" fill="white"/>
<path d="M33.693 17.8885C33.6947 18.0995 33.6548 18.3089 33.5755 18.5045C33.4962 18.7002 33.3791 18.8782 33.2309 19.0286C33.0828 19.1789 32.9064 19.2985 32.7119 19.3806C32.5174 19.4627 32.3087 19.5056 32.0976 19.5069C31.8883 19.5068 31.681 19.4652 31.4879 19.3844C31.2948 19.3037 31.1196 19.1854 30.9726 19.0365C30.7497 18.8104 30.5981 18.5238 30.5366 18.2124C30.4751 17.9009 30.5063 17.5783 30.6265 17.2844C30.7466 16.9906 30.9503 16.7384 31.2124 16.5593C31.4745 16.3801 31.7834 16.2818 32.1009 16.2766C32.4724 16.2765 32.8321 16.4069 33.1173 16.645L33.1502 16.6779C33.2032 16.7211 33.2517 16.7696 33.2949 16.8227L33.3311 16.8621C33.5666 17.1522 33.6944 17.5148 33.693 17.8885Z" fill="white"/>
<defs>
<linearGradient id="paint0_linear_187_1413" x1="7.32237" y1="7.32237" x2="42.6776" y2="42.6776" gradientUnits="userSpaceOnUse">
<stop stop-color="#FAE100"/>
<stop offset="0.15" stop-color="#FCB720"/>
<stop offset="0.3" stop-color="#FF7950"/>
<stop offset="0.5" stop-color="#FF1C74"/>
<stop offset="1" stop-color="#6C1CD1"/>
</linearGradient>
</defs>
</svg>
