<svg width="50" height="50" viewBox="0 0 50 50" fill="none" xmlns="http://www.w3.org/2000/svg">
<rect width="50" height="50" rx="25" fill="white"/>
<path d="M37.2933 31.3475L33.8045 27.8586C32.5585 26.6126 30.4402 27.1111 29.9418 28.7308C29.568 29.8523 28.322 30.4753 27.2006 30.2261C24.7086 29.603 21.3444 26.3634 20.7214 23.7468C20.3476 22.6254 21.0952 21.3794 22.2166 21.0056C23.8364 20.5072 24.3348 18.389 23.0888 17.143L19.6 13.6542C18.6032 12.7819 17.108 12.7819 16.2358 13.6542L13.8684 16.0216C11.5009 18.5136 14.1176 25.1174 19.9738 30.9737C25.83 36.8299 32.4339 39.5712 34.9259 37.0791L37.2933 34.7117C38.1655 33.7149 38.1655 32.2197 37.2933 31.3475Z" fill="#00A94B"/>
</svg>
