<svg width="16" height="16" viewBox="0 0 16 16" fill="none" xmlns="http://www.w3.org/2000/svg">
<g clip-path="url(#clip0_286_2983)">
<path d="M8 16C12.4183 16 16 12.4183 16 8C16 3.58172 12.4183 0 8 0C3.58172 0 0 3.58172 0 8C0 12.4183 3.58172 16 8 16Z" fill="#504F4F"/>
<path d="M3.66084 7.82665L11.3742 4.85265C11.7322 4.72332 12.0448 4.93999 11.9288 5.48132L11.9295 5.48065L10.6162 11.668C10.5188 12.1067 10.2582 12.2133 9.89351 12.0067L7.89351 10.5327L6.92884 11.462C6.82217 11.5687 6.73217 11.6587 6.52551 11.6587L6.66751 9.62332L10.3742 6.27465C10.5355 6.13265 10.3382 6.05265 10.1255 6.19399L5.54484 9.07799L3.57017 8.46199C3.14151 8.32599 3.13218 8.03332 3.66084 7.82665Z" fill="#E9E9E9"/>
</g>
<defs>
<clipPath id="clip0_286_2983">
<rect width="16" height="16" fill="white"/>
</clipPath>
</defs>
</svg>
