<svg width="20" height="20" viewBox="0 0 20 20" fill="none" xmlns="http://www.w3.org/2000/svg">
<g clip-path="url(#clip0_183_1808)">
<path d="M10 20C15.5228 20 20 15.5228 20 10C20 4.47715 15.5228 0 10 0C4.47715 0 0 4.47715 0 10C0 15.5228 4.47715 20 10 20Z" fill="#1F1F1F"/>
<path d="M4.57605 9.78351L14.2177 6.06601C14.6652 5.90434 15.0561 6.17517 14.9111 6.85184L14.9119 6.85101L13.2702 14.5852C13.1486 15.1335 12.8227 15.2668 12.3669 15.0085L9.86689 13.166L8.66105 14.3277C8.52772 14.461 8.41522 14.5735 8.15689 14.5735L8.33439 12.0293L12.9677 7.84351C13.1694 7.66601 12.9227 7.56601 12.6569 7.74267L6.93105 11.3477L4.46272 10.5777C3.92689 10.4077 3.91522 10.0418 4.57605 9.78351Z" fill="#ACACAC"/>
</g>
<defs>
<clipPath id="clip0_183_1808">
<rect width="20" height="20" fill="white"/>
</clipPath>
</defs>
</svg>
