<svg width="48" height="48" viewBox="0 0 48 48" fill="none" xmlns="http://www.w3.org/2000/svg">
<rect width="48" height="48" rx="10" fill="#FFF7EF"/>
<path d="M27.125 18.9375C26.642 18.9375 26.25 18.5455 26.25 18.0625V16.75H22.75V18.0625C22.75 18.5455 22.358 18.9375 21.875 18.9375C21.392 18.9375 21 18.5455 21 18.0625V16.75C21 15.7849 21.7849 15 22.75 15H26.25C27.2151 15 28 15.7849 28 16.75V18.0625C28 18.5455 27.608 18.9375 27.125 18.9375Z" fill="#FDAE82"/>
<path d="M25.1213 26.7075C24.9637 26.7687 24.7362 26.8125 24.5 26.8125C24.2638 26.8125 24.0362 26.7687 23.8263 26.69L14 23.4175V30.0937C14 31.4237 15.0763 32.5 16.4062 32.5H32.5938C33.9237 32.5 35 31.4237 35 30.0937V23.4175L25.1213 26.7075Z" fill="#FDAE82"/>
<path d="M35 20.0312V22.035L24.71 25.465C24.64 25.4913 24.57 25.5 24.5 25.5C24.43 25.5 24.36 25.4913 24.29 25.465L14 22.035V20.0312C14 18.7013 15.0763 17.625 16.4062 17.625H32.5938C33.9237 17.625 35 18.7013 35 20.0312Z" fill="#FDAE82"/>
</svg>
