<svg width="48" height="48" viewBox="0 0 48 48" fill="none" xmlns="http://www.w3.org/2000/svg">
<rect width="48" height="48" rx="10" fill="#EFFDF1"/>
<path d="M33.0989 29.1129C32.5215 28.6286 29.1347 26.4839 28.5717 26.5823C28.3074 26.6292 28.1053 26.8545 27.5641 27.5001C27.3139 27.8178 27.0391 28.1154 26.7422 28.39C26.1983 28.2586 25.6718 28.0635 25.1737 27.8086C23.2201 26.8575 21.6419 25.2788 20.6914 23.325C20.4365 22.8269 20.2414 22.3004 20.11 21.7565C20.3846 21.4596 20.6822 21.1848 20.9999 20.9345C21.6448 20.3934 21.8708 20.1926 21.9177 19.9269C22.0161 19.3627 19.8695 15.9772 19.3871 15.3997C19.185 15.1606 19.0013 15 18.7661 15C18.0842 15 15 18.8136 15 19.3079C15 19.3482 15.0661 23.3184 20.0802 28.4198C25.1816 33.4339 29.1518 33.5 29.1921 33.5C29.6864 33.5 33.5 30.4158 33.5 29.7339C33.5 29.4987 33.3394 29.315 33.0989 29.1129Z" fill="#87C672"/>
<path d="M28.875 23.5893H30.1964C30.1948 22.1879 29.6375 20.8444 28.6465 19.8535C27.6556 18.8626 26.3121 18.3052 24.9107 18.3036V19.625C25.9618 19.6261 26.9695 20.0441 27.7127 20.7873C28.4559 21.5305 28.8739 22.5382 28.875 23.5893Z" fill="#87C672"/>
<path d="M32.1786 23.5893H33.5C33.4974 21.3121 32.5916 19.1289 30.9814 17.5186C29.3711 15.9084 27.1879 15.0026 24.9107 15V16.3214C26.8376 16.3237 28.6849 17.0902 30.0473 18.4526C31.4098 19.8151 32.1763 21.6624 32.1786 23.5893Z" fill="#87C672"/>
</svg>
