<svg width="48" height="48" viewBox="0 0 48 48" fill="none" xmlns="http://www.w3.org/2000/svg">
<rect width="48" height="48" rx="10" fill="#F1FDFF"/>
<g clip-path="url(#clip0_173_79)">
<path d="M35.5481 20.3117C35.4818 20.2829 33.8657 19.5828 24.2975 15.4365C24.1071 15.3539 23.8915 15.3539 23.7012 15.4365L12.4506 20.3117C11.8469 20.5728 11.8527 21.4297 12.4506 21.688C14.6362 22.635 18.2093 24.1835 23.7012 26.5633C23.8904 26.6453 24.106 26.6463 24.2975 26.5633C24.819 26.3373 31.9249 23.258 32.2498 23.1173V31.1044C32.2498 31.5083 32.5604 31.8558 32.9639 31.8746C33.3946 31.8947 33.7498 31.5517 33.7498 31.1254V22.8453C33.7498 22.7274 33.6626 22.6279 33.5456 22.6129C32.1379 22.4315 25.4987 21.5745 23.9032 21.3688C23.4418 21.3111 23.1542 20.8439 23.2755 20.428C23.3707 20.0767 23.7042 19.853 24.042 19.8762C24.0756 19.8782 34.7643 21.2575 34.7566 21.2565C34.9563 21.2822 35.1205 21.4101 35.1993 21.5835C35.2545 21.7047 35.3948 21.7603 35.5154 21.7037C35.7172 21.6091 35.8922 21.4846 35.9718 21.2028C36.0743 20.8377 35.8891 20.4592 35.5481 20.3117Z" fill="#6CCBE0"/>
<path d="M23.1044 27.9396L16.8265 25.2192C16.6717 25.1521 16.4989 25.2656 16.4989 25.4343V28.1253C16.4989 30.6487 19.7934 32.6255 23.9993 32.6255C28.2051 32.6255 31.4997 30.6487 31.4997 28.1253V25.4343C31.4997 25.2656 31.3269 25.1522 31.1721 25.2192L24.8937 27.9396C24.3237 28.1874 23.675 28.1872 23.1044 27.9396Z" fill="#6CCBE0"/>
</g>
<defs>
<clipPath id="clip0_173_79">
<rect width="24" height="24" fill="white" transform="translate(12 12)"/>
</clipPath>
</defs>
</svg>
