<svg width="48" height="48" viewBox="0 0 48 48" fill="none" xmlns="http://www.w3.org/2000/svg">
<rect width="48" height="48" rx="10" fill="#F8F2FF"/>
<path fill-rule="evenodd" clip-rule="evenodd" d="M24 34C29.5228 34 34 29.5228 34 24C34 18.4772 29.5228 14 24 14C18.4772 14 14 18.4772 14 24C14 29.5228 18.4772 34 24 34ZM24.9091 18.5455C24.9091 18.0434 24.5021 17.6364 24 17.6364C23.4979 17.6364 23.0909 18.0434 23.0909 18.5455V19.0777C21.808 19.3745 20.8182 20.4893 20.8182 21.8734C20.8182 23.2511 21.8135 24.4015 23.1494 24.6821L24.4151 24.9479C24.9941 25.0695 25.3636 25.5469 25.3636 26.051C25.3636 26.6409 24.8546 27.1818 24.1478 27.1818H24C23.3399 27.1818 22.8195 26.7508 22.6769 26.2191C22.5469 25.7342 22.0484 25.4465 21.5635 25.5765C21.0785 25.7065 20.7908 26.205 20.9208 26.69C21.2047 27.7489 22.0404 28.5676 23.0909 28.8716V29.4545C23.0909 29.9566 23.4979 30.3636 24 30.3636C24.5021 30.3636 24.9091 29.9566 24.9091 29.4545V28.9056C26.1972 28.5804 27.1818 27.4491 27.1818 26.051C27.1818 24.6378 26.1607 23.4566 24.7887 23.1685L23.523 22.9027C22.9801 22.7887 22.6364 22.342 22.6364 21.8734C22.6364 21.3253 23.1101 20.8182 23.7735 20.8182H24C24.6601 20.8182 25.1805 21.2492 25.3231 21.7809C25.4531 22.2658 25.9516 22.5535 26.4365 22.4235C26.9215 22.2935 27.2092 21.795 27.0792 21.31C26.7953 20.2511 25.9596 19.4324 24.9091 19.1284V18.5455Z" fill="#9F8FFA"/>
</svg>
