<svg width="48" height="48" viewBox="0 0 48 48" fill="none" xmlns="http://www.w3.org/2000/svg">
<rect width="48" height="48" rx="10" fill="#F1F3FF"/>
<path d="M18.9866 18.0752L17.1638 16.2524C16.912 16.0007 16.5041 16.0007 16.2524 16.2524C16.0006 16.5042 16.0006 16.9121 16.2524 17.1638L18.0752 18.9866C18.3269 19.2384 18.7348 19.2384 18.9866 18.9866C19.2383 18.7349 19.2383 18.327 18.9866 18.0752Z" fill="#6F96FD"/>
<path d="M16.2656 23.3555H13.6445C13.2883 23.3555 13 23.6437 13 24C13 24.3563 13.2883 24.6445 13.6445 24.6445H16.2656C16.6219 24.6445 16.9102 24.3563 16.9102 24C16.9102 23.6437 16.6219 23.3555 16.2656 23.3555Z" fill="#6F96FD"/>
<path d="M34.3555 23.3555H31.7344C31.3781 23.3555 31.0898 23.6437 31.0898 24C31.0898 24.3563 31.3781 24.6445 31.7344 24.6445H34.3555C34.7117 24.6445 35 24.3563 35 24C35 23.6437 34.7117 23.3555 34.3555 23.3555Z" fill="#6F96FD"/>
<path d="M31.7476 16.2524C31.4959 16.0007 31.088 16.0007 30.8362 16.2524L29.0134 18.0752C28.7616 18.327 28.7616 18.7349 29.0134 18.9866C29.2652 19.2384 29.6731 19.2384 29.9248 18.9866L31.7476 17.1638C31.9994 16.9121 31.9994 16.5042 31.7476 16.2524Z" fill="#6F96FD"/>
<path d="M24 13C23.6437 13 23.3555 13.2883 23.3555 13.6445V16.2656C23.3555 16.6219 23.6437 16.9102 24 16.9102C24.3563 16.9102 24.6445 16.6219 24.6445 16.2656V13.6445C24.6445 13.2883 24.3563 13 24 13Z" fill="#6F96FD"/>
<path d="M27.6094 19.4495C26.2044 18.3409 24.3867 17.9414 22.6078 18.3668C20.5453 18.8437 18.8825 20.4808 18.3797 22.5304C17.877 24.5929 18.4571 26.6812 19.9394 28.1378C20.468 28.6664 20.7774 29.4956 20.7774 30.3464V30.4882C20.7774 30.8491 21.0609 31.1328 21.4219 31.1328H26.5782C26.9391 31.1328 27.2227 30.8491 27.2227 30.4882V30.3464C27.2227 29.5085 27.545 28.6534 28.1121 28.0991C29.195 27.0034 29.8008 25.5468 29.8008 24C29.8008 22.2211 29.0016 20.5581 27.6094 19.4495ZM24 22.0664C23.0276 22.0664 22.3198 22.7114 22.1344 23.458C22.0501 23.7976 21.7084 24.0144 21.3533 23.9288C21.0084 23.8432 20.7975 23.4933 20.8831 23.1484C21.2025 21.8593 22.4132 20.7773 24 20.7773C24.3563 20.7773 24.6446 21.0656 24.6446 21.4218C24.6446 21.7781 24.3563 22.0664 24 22.0664Z" fill="#6F96FD"/>
<path d="M21.4219 32.4219V33.0664C21.4219 34.1326 22.2892 35 23.3555 35H24.6445C25.7108 35 26.5781 34.1326 26.5781 33.0664V32.4219H21.4219Z" fill="#6F96FD"/>
</svg>
