<svg width="48" height="48" viewBox="0 0 48 48" fill="none" xmlns="http://www.w3.org/2000/svg">
<rect width="48" height="48" rx="10" fill="#FFF5F5"/>
<path d="M25.0312 31.5388C25.4422 31.3212 25.6077 30.8193 25.3883 30.4057C25.3883 30.4057 24.9795 29.6374 24.7542 29.2199C24.6396 29.7603 24.3238 29.9421 23.5787 30.5873L23.9011 31.1941C24.0471 31.4669 24.6136 31.7629 25.0312 31.5388ZM22.8673 30.5626L24.0139 29.5694C24.399 29.2322 24.3797 28.6581 24.0498 28.3396C23.7318 28.0169 23.2264 28.0205 22.9115 28.2953L21.7645 29.2915C21.4111 29.5968 21.3825 30.1275 21.6859 30.4783C21.95 30.7793 22.478 30.8949 22.8673 30.5626ZM26.8944 30.552C27.3319 30.3178 27.4568 29.8114 27.252 29.4156L25.9548 26.9933L26.3236 26.7612L27.7665 29.4845C27.9818 29.89 28.4815 30.0442 28.8967 29.8322C29.3287 29.5991 29.4666 29.0971 29.2537 28.696L27.7536 25.871L28.1356 25.6419C28.1356 25.6419 29.1278 27.5514 29.4852 28.2318C29.7061 28.6436 30.2173 28.7915 30.616 28.5765C31.035 28.3549 31.1915 27.8555 30.9727 27.4406C29.8492 25.3128 30.0934 25.7605 29.6354 25.01C28.2831 23.132 26.3116 21.8429 24.3701 20.2351L20.9197 21.8553C20.2071 22.1828 19.4573 21.8421 19.1616 21.2321C18.8389 20.5602 19.123 19.7769 19.7766 19.4605L20.6021 19.073L17.9505 19.0655L15.1414 22.9096L16.972 24.593C17.0491 24.4235 17.1632 24.2715 17.3056 24.1478L19.3612 22.3629C19.9091 21.8947 20.7388 21.9423 21.2241 22.4947C21.4634 22.7735 21.5775 23.1161 21.5501 23.4689C22.0297 23.3606 22.5171 23.5322 22.8314 23.891C23.2167 24.3353 23.2661 24.96 22.9711 25.4426C23.2784 25.4923 23.5548 25.6455 23.7574 25.8794C24.2095 26.4029 24.1852 27.1586 23.7442 27.6406C24.0464 27.596 24.4038 27.7558 24.572 28.0147C24.572 28.0147 25.4469 29.6037 25.7648 30.2064C25.9081 30.4801 26.4787 30.7742 26.8944 30.552ZM21.4854 28.97L23.3158 27.3832C23.6599 27.0872 23.7033 26.5577 23.3905 26.1967C23.094 25.8518 22.5638 25.8066 22.2128 26.113C22.17 26.1504 20.3571 27.7197 20.3177 27.761C20.0265 28.0729 20.0221 28.5567 20.3078 28.8866C20.5784 29.2003 21.1131 29.2933 21.4854 28.97ZM19.8778 27.5725L22.3886 25.3962C22.7378 25.097 22.7769 24.5677 22.4669 24.2098C22.158 23.8573 21.6339 23.8251 21.2889 24.1255L18.9964 26.1091C18.465 26.4445 18.3919 27.1351 18.7005 27.4895C18.9569 27.7905 19.4976 27.9052 19.8778 27.5725ZM17.5465 25.7006C17.2349 25.3402 17.2801 24.8095 17.6218 24.5142L19.678 22.7289C20.0223 22.4351 20.5519 22.4619 20.8593 22.8132C21.1678 23.1724 21.135 23.6941 20.784 23.9997L18.7248 25.7849C18.4027 26.067 17.8744 26.0751 17.5465 25.7006ZM24.4429 19.6658L20.7133 21.4164C20.2743 21.6214 19.7906 21.4203 19.5967 21.0211C19.3878 20.5846 19.5783 20.0945 19.9868 19.8955L23.7403 18.135C24.262 17.9447 24.7829 17.8589 25.4233 17.8589C26.7136 17.8589 29.3627 18.5534 30.5832 18.8999L32.7755 22.6387L31.5183 23.431C31.2172 23.7197 30.971 24.5338 30.3117 24.967C28.962 23.1381 26.6027 21.2315 24.4429 19.6658ZM30.9227 18.1346L33.2276 16.726L36 21.3631L33.6044 22.7067L30.9227 18.1346ZM12 21.0924L15.2387 16.3822L17.6212 18.2924L14.4571 22.6823L12 21.0924Z" fill="#D36B6B"/>
</svg>
