<svg width="410" height="143" viewBox="0 0 410 143" fill="none" xmlns="http://www.w3.org/2000/svg">
<path d="M126.264 87.738H101.712V59.82H77.556V87.738H32.214L96.564 2.39999H69.042L0.732 91.698V109.518H76.764V141H101.712V109.518H126.264V87.738ZM202.833 142.98C235.899 142.98 260.847 117.24 260.847 71.7C260.847 26.16 235.899 0.419992 202.833 0.419992C169.965 0.419992 145.017 26.16 145.017 71.7C145.017 117.24 169.965 142.98 202.833 142.98ZM202.833 120.606C184.023 120.606 170.955 105.162 170.955 71.7C170.955 38.238 184.023 22.794 202.833 22.794C221.841 22.794 234.909 38.238 234.909 71.7C234.909 105.162 221.841 120.606 202.833 120.606ZM409.713 87.738H385.161V59.82H361.005V87.738H315.663L380.013 2.39999H352.491L284.181 91.698V109.518H360.213V141H385.161V109.518H409.713V87.738Z" fill="#6E52FF"/>
</svg>
