<svg width="24" height="24" viewBox="0 0 24 24" fill="none" xmlns="http://www.w3.org/2000/svg">
<path d="M12.0001 8.00002C12.1317 7.99926 12.2621 8.02448 12.384 8.07425C12.5058 8.12401 12.6166 8.19734 12.7101 8.29002L18.7101 14.29C18.8984 14.4783 19.0042 14.7337 19.0042 15C19.0042 15.2663 18.8984 15.5217 18.7101 15.71C18.5218 15.8983 18.2664 16.0041 18.0001 16.0041C17.7338 16.0041 17.4784 15.8983 17.2901 15.71L12.0001 10.41L6.71003 15.7C6.51873 15.8638 6.27265 15.9494 6.02098 15.9397C5.7693 15.93 5.53056 15.8257 5.35247 15.6476C5.17437 15.4695 5.07004 15.2307 5.06032 14.979C5.0506 14.7274 5.1362 14.4813 5.30003 14.29L11.3001 8.29002C11.4863 8.10527 11.7377 8.00112 12.0001 8.00002Z" fill="#6F6F6F"/>
</svg>
