<svg width="14" height="14" viewBox="0 0 14 14" fill="none" xmlns="http://www.w3.org/2000/svg">
<path d="M7.00003 9.33333C6.92326 9.33378 6.84715 9.31906 6.77608 9.29003C6.70501 9.261 6.64037 9.21823 6.58586 9.16417L3.08586 5.66417C2.97602 5.55432 2.91431 5.40534 2.91431 5.25C2.91431 5.09466 2.97602 4.94568 3.08586 4.83583C3.1957 4.72599 3.34468 4.66428 3.50003 4.66428C3.65537 4.66428 3.80435 4.72599 3.91419 4.83583L7.00003 7.9275L10.0859 4.84167C10.1975 4.7461 10.341 4.69616 10.4878 4.70184C10.6346 4.70751 10.7739 4.76837 10.8778 4.87226C10.9817 4.97614 11.0425 5.11541 11.0482 5.26222C11.0539 5.40903 11.0039 5.55257 10.9084 5.66417L7.40836 9.16417C7.29971 9.27193 7.15306 9.33269 7.00003 9.33333Z" fill="#504F4F"/>
</svg>
