<svg width="22" height="22" viewBox="0 0 22 22" fill="none" xmlns="http://www.w3.org/2000/svg">
<path d="M14.6672 11.0001C14.6678 11.1208 14.6447 11.2403 14.5992 11.352C14.5535 11.4637 14.4863 11.5652 14.4013 11.651L8.90134 17.151C8.72872 17.3236 8.49461 17.4205 8.2505 17.4205C8.00639 17.4205 7.77228 17.3236 7.59967 17.151C7.42705 16.9783 7.33008 16.7442 7.33008 16.5001C7.33008 16.256 7.42705 16.0219 7.59967 15.8493L12.458 11.0001L7.60884 6.15092C7.45866 5.97556 7.38018 5.74999 7.38909 5.51929C7.398 5.28858 7.49365 5.06974 7.6569 4.90649C7.82016 4.74323 8.039 4.64759 8.2697 4.63868C8.5004 4.62977 8.72597 4.70824 8.90133 4.85842L14.4013 10.3585C14.5707 10.5291 14.6662 10.7596 14.6672 11.0001Z" fill="#ACACAC"/>
</svg>
