<svg width="40" height="40" viewBox="0 0 40 40" fill="none" xmlns="http://www.w3.org/2000/svg">
<path d="M20.0001 13.3335C20.2194 13.3323 20.4368 13.3743 20.6399 13.4572C20.8429 13.5402 21.0276 13.6624 21.1834 13.8169L31.1834 23.8169C31.4973 24.1307 31.6736 24.5564 31.6736 25.0002C31.6736 25.444 31.4973 25.8697 31.1834 26.1835C30.8696 26.4974 30.4439 26.6737 30.0001 26.6737C29.5563 26.6737 29.1306 26.4974 28.8168 26.1835L20.0001 17.3502L11.1834 26.1669C10.8645 26.4399 10.4544 26.5825 10.035 26.5664C9.61549 26.5502 9.21759 26.3764 8.92078 26.0795C8.62394 25.7827 8.45006 25.3847 8.43386 24.9652C8.41766 24.5459 8.56033 24.1357 8.83338 23.8169L18.8334 13.8169C19.1438 13.5089 19.5628 13.3354 20.0001 13.3335Z" fill="white"/>
</svg>
