<svg width="16" height="16" viewBox="0 0 16 16" fill="none" xmlns="http://www.w3.org/2000/svg">
<g clip-path="url(#clip0_183_1863)">
<path d="M13.1379 15.3634C9.72352 15.7192 6.28011 15.7192 2.86577 15.3634C2.20273 15.295 1.58373 15.0066 1.11196 14.5464C0.640186 14.0862 0.344148 13.4819 0.273201 12.8343C-0.0910669 9.49882 -0.0910669 6.13498 0.273201 2.79954C0.343218 2.15183 0.638387 1.54713 1.1095 1.08626C1.58061 0.625392 2.1992 0.336195 2.86213 0.266887C6.27648 -0.0889624 9.71989 -0.0889624 13.1342 0.266887C13.7973 0.335286 14.4163 0.623634 14.888 1.08386C15.3598 1.54408 15.6559 2.14838 15.7268 2.79599C16.0911 6.13143 16.0911 9.49527 15.7268 12.8307C15.6568 13.4784 15.3616 14.0831 14.8905 14.544C14.4194 15.0049 13.8008 15.2941 13.1379 15.3634Z" fill="#0056FF"/>
<path d="M9.49609 5.14844H12.0023V5.75762H9.49609V5.14844Z" fill="white"/>
<path d="M12.9995 8.57121C12.9995 7.29956 11.9913 6.26855 10.7487 6.26855C9.50604 6.26855 8.49792 7.29956 8.49792 8.57121C8.49792 9.84287 9.43332 10.873 10.7487 10.873C11.7486 10.873 12.6031 10.4432 12.8931 9.41129H11.8377C11.7408 9.58794 11.5966 9.73554 11.4205 9.83831C11.2443 9.94107 11.0429 9.99514 10.8378 9.99472C10.2478 9.99472 9.72876 9.58179 9.75967 8.88735H12.9822C12.9995 8.78611 12.9995 8.68133 12.9995 8.57121ZM9.7633 8.1192C9.84148 7.54731 10.2551 7.18234 10.7542 7.18234C11.2532 7.18234 11.6632 7.54731 11.745 8.1192H9.7633Z" fill="white"/>
<path d="M8.11241 8.6678C8.0306 7.7851 7.00884 7.48761 7.00884 7.48761C7.397 7.31 7.8597 6.9468 7.85516 6.14669C7.84788 4.99225 6.61523 4.75781 6.21889 4.75781H3V10.7627H5.92437C6.3307 10.7627 6.76341 10.7103 7.10611 10.5433C8.0306 10.0993 8.19241 9.55139 8.11241 8.6678ZM4.35264 5.79414H5.7362C5.7362 5.79414 6.55433 5.77549 6.55433 6.48236C6.55433 7.18923 5.7362 7.1697 5.7362 7.1697H4.35264V5.79414ZM5.81801 9.7432H4.35264V8.10124H5.81801C5.81801 8.10124 6.79249 8.07904 6.79249 8.92178C6.79249 9.76451 5.81801 9.7432 5.81801 9.7432Z" fill="white"/>
</g>
<defs>
<clipPath id="clip0_183_1863">
<rect width="16" height="16" fill="white"/>
</clipPath>
</defs>
</svg>
