<svg width="217" height="197" viewBox="0 0 217 197" fill="none" xmlns="http://www.w3.org/2000/svg">
<g clip-path="url(#clip0_83_4686)">
<path d="M0.29438 196.048L216.02 197.032L216.478 68.1053L0.752539 67.1213L0.29438 196.048Z" fill="#414040"/>
<path d="M95.4221 5.9177L0.819613 67.1194L216.479 67.9933L122.373 6.02164C114.203 0.637766 103.643 0.596047 95.423 5.9085L95.4221 5.9177Z" fill="#404040"/>
<path opacity="0.2" d="M208.471 67.9666L119.057 9.08713C112.89 5.02898 104.917 4.997 98.7214 9.00846L8.83236 67.1549L208.471 67.9666Z" fill="#474747"/>
<path d="M169.176 62.4207L197.31 73.0943L197.283 80.4116L108.361 137.94L19.9186 79.6974L19.9728 65.0628L169.176 62.4207Z" fill="white"/>
<path d="M169.177 62.4209L173.114 78.182L197.311 73.0945" fill="#E0E0E0"/>
<path d="M169.177 62.4209L170.727 75.2476L197.311 73.0945" fill="#F0F0F0"/>
<path d="M126.801 125.994L215.955 197.034L0.294866 196.161L90.0198 125.847C100.848 117.36 116.037 117.422 126.801 125.994Z" fill="#504F4F"/>
</g>
<defs>
<clipPath id="clip0_83_4686">
<rect width="216" height="197" fill="white" transform="translate(0.5)"/>
</clipPath>
</defs>
</svg>
