<svg width="20" height="21" viewBox="0 0 20 21" fill="none" xmlns="http://www.w3.org/2000/svg">
<g clip-path="url(#clip0_487_1239)">
<path d="M10 4.53906C6.17879 4.53906 2.71351 6.62968 0.15649 10.0254C-0.0521632 10.3036 -0.0521632 10.6923 0.15649 10.9705C2.71351 14.3703 6.17879 16.4609 10 16.4609C13.8212 16.4609 17.2865 14.3703 19.8435 10.9746C20.0522 10.6964 20.0522 10.3077 19.8435 10.0295C17.2865 6.62968 13.8212 4.53906 10 4.53906ZM10.2741 14.6976C7.73755 14.8572 5.64284 12.7665 5.80239 10.2259C5.93331 8.13117 7.63118 6.4333 9.72589 6.30238C12.2625 6.14283 14.3572 8.23345 14.1976 10.7741C14.0626 12.8647 12.3647 14.5626 10.2741 14.6976ZM10.1473 12.7584C8.78081 12.8443 7.65163 11.7192 7.74164 10.3527C7.81119 9.22353 8.72763 8.31118 9.85681 8.23754C11.2233 8.15162 12.3525 9.27671 12.2625 10.6432C12.1888 11.7765 11.2724 12.6888 10.1473 12.7584Z" fill="#ACACAC"/>
</g>
<defs>
<clipPath id="clip0_487_1239">
<rect width="20" height="20" fill="white" transform="translate(0 0.5)"/>
</clipPath>
</defs>
</svg>
