<svg width="40" height="40" viewBox="0 0 40 40" fill="none" xmlns="http://www.w3.org/2000/svg">
<path d="M26.8325 11.8682C27.0258 12.3026 27.1954 12.7473 27.3405 13.2002C27.8863 14.9498 28.0479 16.7966 27.8141 18.6144C27.5803 20.4322 26.9567 22.178 25.9859 23.7326C25.0151 25.2871 23.72 26.6137 22.1893 27.6215C20.6585 28.6294 18.9281 29.2948 17.1165 29.5722C16.6435 29.6446 16.1667 29.6887 15.6885 29.7042C16.5712 30.9049 17.6825 31.9193 18.9585 32.6892C20.2345 33.4592 21.65 33.9694 23.1238 34.1905C24.5976 34.4117 26.1005 34.3394 27.5463 33.978C28.9921 33.6165 30.3522 32.9729 31.5485 32.0842L34.6045 32.5562C34.7187 32.5743 34.8357 32.559 34.9415 32.5122C35.0472 32.4653 35.1371 32.3889 35.2005 32.2922C35.2632 32.1943 35.2965 32.0804 35.2965 31.9642C35.2965 31.8479 35.2632 31.7341 35.2005 31.6362L33.9325 29.6802C35.3599 27.7463 36.1257 25.4038 36.1165 23.0002C36.1133 20.3523 35.1831 17.7891 33.4871 15.7556C31.7912 13.7221 29.4368 12.3467 26.8325 11.8682Z" fill="white"/>
<path d="M26.5155 17.0001C26.5156 19.0972 25.9328 21.1531 24.8324 22.9383C23.7319 24.7235 22.157 26.1677 20.2835 27.1099C18.4099 28.0521 16.3114 28.4551 14.2221 28.2739C12.1328 28.0928 10.135 27.3346 8.45155 26.0841L5.39555 26.5561C5.28133 26.5742 5.16431 26.5589 5.05857 26.5121C4.95283 26.4652 4.86288 26.3888 4.79955 26.2921C4.73682 26.1942 4.70349 26.0804 4.70349 25.9641C4.70349 25.8478 4.73682 25.734 4.79955 25.6361L6.06755 23.6801C4.64016 21.7462 3.87428 19.4037 3.88355 17.0001C3.88355 13.9989 5.07577 11.1206 7.19793 8.99846C9.32009 6.8763 12.1984 5.68408 15.1995 5.68408C18.2007 5.68408 21.079 6.8763 23.2012 8.99846C25.3233 11.1206 26.5155 13.9989 26.5155 17.0001Z" fill="white"/>
</svg>
