<svg width="32" height="32" viewBox="0 0 32 32" fill="none" xmlns="http://www.w3.org/2000/svg">
<rect width="32" height="32" rx="6" fill="#F3F2F6"/>
<g clip-path="url(#clip0_80_1967)">
<path d="M18.5093 10.1966C18.3189 10.1966 18.1468 10.2679 18.012 10.3818L18.0049 10.3748L11.9307 16.4281C11.2423 17.1163 10.9601 17.7877 10.9565 18.7462C10.9565 19.4959 11.2335 20.1702 11.7363 20.6451C12.2556 21.1353 12.9768 21.3944 13.8223 21.3943H13.8401C14.7201 21.3903 15.5437 21.044 16.1582 20.4201L23.2063 13.3736C24.9914 11.5883 25.0382 9.04397 23.3177 7.32328C22.4643 6.46998 21.3282 6 20.1184 6C18.9087 6 17.7728 6.46998 16.9201 7.32334L8.09249 16.1497C5.84197 18.4002 5.84197 22.0623 8.09249 24.3128C9.18092 25.4009 10.6303 26 12.1736 26C13.7169 26 15.1664 25.4009 16.2553 24.3126L25.394 15.1416C25.394 15.1416 25.5954 14.9436 25.5954 14.6097C25.5954 14.1818 25.2485 13.8349 24.8206 13.8349C24.6173 13.8349 24.4336 13.915 24.2954 14.0432L24.293 14.0409L15.1541 23.2121C14.3592 24.0065 13.3007 24.4441 12.1734 24.4441C11.0462 24.4441 9.98778 24.0065 9.19318 23.2121C7.54962 21.5679 7.54962 18.8936 9.19318 17.2505L18.0208 8.42433C18.5801 7.86496 19.3251 7.55697 20.1184 7.55697C20.9118 7.55697 21.6572 7.86509 22.217 8.42433C22.7753 8.98261 23.0559 9.64583 23.0287 10.3426C23.0019 11.0283 22.6827 11.6957 22.1056 12.2729L15.0427 19.3342C14.7198 19.6575 14.2905 19.8364 13.8345 19.8374C12.9672 19.8374 12.5134 19.291 12.5134 18.7519C12.5151 18.2963 12.6938 17.8672 13.0167 17.5438L19.1057 11.4758L19.0987 11.4689C19.2127 11.334 19.284 11.162 19.284 10.9715C19.2841 10.5434 18.9371 10.1966 18.5093 10.1966Z" fill="#6F6F6F"/>
</g>
<defs>
<clipPath id="clip0_80_1967">
<rect width="20" height="20" fill="white" transform="translate(6 6)"/>
</clipPath>
</defs>
</svg>
