<svg width="77" height="30" viewBox="0 0 77 30" fill="none" xmlns="http://www.w3.org/2000/svg">
<path d="M0.00800014 23V0.599998H4.168V19.48H15.88V23H0.00800014ZM25.6 23.224C23.8507 23.224 22.2933 22.8507 20.928 22.104C19.5627 21.336 18.4853 20.2907 17.696 18.968C16.9067 17.6453 16.512 16.1413 16.512 14.456C16.512 12.7493 16.9067 11.2453 17.696 9.944C18.4853 8.62133 19.5627 7.58667 20.928 6.84C22.2933 6.09333 23.8507 5.72 25.6 5.72C27.3707 5.72 28.9387 6.09333 30.304 6.84C31.6907 7.58667 32.768 8.61067 33.536 9.912C34.3253 11.2133 34.72 12.728 34.72 14.456C34.72 16.1413 34.3253 17.6453 33.536 18.968C32.768 20.2907 31.6907 21.336 30.304 22.104C28.9387 22.8507 27.3707 23.224 25.6 23.224ZM25.6 19.8C26.5813 19.8 27.456 19.5867 28.224 19.16C28.992 18.7333 29.5893 18.1147 30.016 17.304C30.464 16.4933 30.688 15.544 30.688 14.456C30.688 13.3467 30.464 12.3973 30.016 11.608C29.5893 10.7973 28.992 10.1787 28.224 9.752C27.456 9.32533 26.592 9.112 25.632 9.112C24.6507 9.112 23.776 9.32533 23.008 9.752C22.2613 10.1787 21.664 10.7973 21.216 11.608C20.768 12.3973 20.544 13.3467 20.544 14.456C20.544 15.544 20.768 16.4933 21.216 17.304C21.664 18.1147 22.2613 18.7333 23.008 19.16C23.776 19.5867 24.64 19.8 25.6 19.8ZM45.585 29.432C44.0063 29.432 42.4597 29.2187 40.945 28.792C39.4517 28.3867 38.225 27.7893 37.265 27L39.057 23.992C39.8037 24.6107 40.7423 25.1013 41.873 25.464C43.025 25.848 44.1877 26.04 45.361 26.04C47.2383 26.04 48.6143 25.6027 49.489 24.728C50.3637 23.8747 50.801 22.584 50.801 20.856V17.816L51.121 13.944L50.993 10.072V5.912H54.801V20.408C54.801 23.5013 54.0117 25.7733 52.433 27.224C50.8543 28.696 48.5717 29.432 45.585 29.432ZM45.073 22.232C43.4517 22.232 41.9797 21.8907 40.657 21.208C39.3557 20.504 38.321 19.5333 37.553 18.296C36.8063 17.0587 36.433 15.608 36.433 13.944C36.433 12.3013 36.8063 10.8613 37.553 9.624C38.321 8.38667 39.3557 7.42667 40.657 6.744C41.9797 6.06133 43.4517 5.72 45.073 5.72C46.5237 5.72 47.825 6.008 48.977 6.584C50.129 7.16 51.0463 8.056 51.729 9.272C52.433 10.488 52.785 12.0453 52.785 13.944C52.785 15.8427 52.433 17.4107 51.729 18.648C51.0463 19.864 50.129 20.7707 48.977 21.368C47.825 21.944 46.5237 22.232 45.073 22.232ZM45.681 18.84C46.6837 18.84 47.5797 18.6373 48.369 18.232C49.1583 17.8053 49.7663 17.2293 50.193 16.504C50.641 15.7573 50.865 14.904 50.865 13.944C50.865 12.984 50.641 12.1413 50.193 11.416C49.7663 10.6693 49.1583 10.104 48.369 9.72C47.5797 9.31467 46.6837 9.112 45.681 9.112C44.6783 9.112 43.7717 9.31467 42.961 9.72C42.1717 10.104 41.553 10.6693 41.105 11.416C40.6783 12.1413 40.465 12.984 40.465 13.944C40.465 14.904 40.6783 15.7573 41.105 16.504C41.553 17.2293 42.1717 17.8053 42.961 18.232C43.7717 18.6373 44.6783 18.84 45.681 18.84ZM67.0358 23.224C65.2864 23.224 63.7291 22.8507 62.3638 22.104C60.9984 21.336 59.9211 20.2907 59.1318 18.968C58.3424 17.6453 57.9478 16.1413 57.9478 14.456C57.9478 12.7493 58.3424 11.2453 59.1318 9.944C59.9211 8.62133 60.9984 7.58667 62.3638 6.84C63.7291 6.09333 65.2864 5.72 67.0358 5.72C68.8064 5.72 70.3744 6.09333 71.7398 6.84C73.1264 7.58667 74.2038 8.61067 74.9718 9.912C75.7611 11.2133 76.1558 12.728 76.1558 14.456C76.1558 16.1413 75.7611 17.6453 74.9718 18.968C74.2038 20.2907 73.1264 21.336 71.7398 22.104C70.3744 22.8507 68.8064 23.224 67.0358 23.224ZM67.0358 19.8C68.0171 19.8 68.8918 19.5867 69.6598 19.16C70.4278 18.7333 71.0251 18.1147 71.4518 17.304C71.8998 16.4933 72.1238 15.544 72.1238 14.456C72.1238 13.3467 71.8998 12.3973 71.4518 11.608C71.0251 10.7973 70.4278 10.1787 69.6598 9.752C68.8918 9.32533 68.0278 9.112 67.0678 9.112C66.0864 9.112 65.2118 9.32533 64.4438 9.752C63.6971 10.1787 63.0998 10.7973 62.6518 11.608C62.2038 12.3973 61.9798 13.3467 61.9798 14.456C61.9798 15.544 62.2038 16.4933 62.6518 17.304C63.0998 18.1147 63.6971 18.7333 64.4438 19.16C65.2118 19.5867 66.0758 19.8 67.0358 19.8Z" fill="black"/>
</svg>
