<svg width="40" height="40" viewBox="0 0 40 40" fill="none" xmlns="http://www.w3.org/2000/svg">
<path d="M20.0011 13.3333C20.2204 13.332 20.4378 13.374 20.6409 13.457C20.8439 13.5399 21.0286 13.6621 21.1844 13.8166L31.1844 23.8166C31.4983 24.1304 31.6746 24.5561 31.6746 24.9999C31.6746 25.4438 31.4983 25.8694 31.1844 26.1833C30.8706 26.4971 30.4449 26.6734 30.0011 26.6734C29.5573 26.6734 29.1316 26.4971 28.8178 26.1833L20.0011 17.3499L11.1844 26.1666C10.8655 26.4396 10.4554 26.5823 10.0359 26.5661C9.61647 26.5499 9.21857 26.3761 8.92175 26.0793C8.62492 25.7824 8.45104 25.3844 8.43484 24.9649C8.41864 24.5456 8.5613 24.1354 8.83435 23.8166L18.8344 13.8166C19.1448 13.5087 19.5638 13.3351 20.0011 13.3333Z" fill="white"/>
</svg>
