<svg width="20" height="20" viewBox="0 0 20 20" fill="none" xmlns="http://www.w3.org/2000/svg">
<path d="M13.3334 10.0001C13.334 10.1097 13.313 10.2184 13.2716 10.32C13.2301 10.4215 13.169 10.5138 13.0918 10.5917L8.09175 15.5917C7.93482 15.7486 7.722 15.8368 7.50008 15.8368C7.27815 15.8368 7.06533 15.7486 6.90841 15.5917C6.75149 15.4348 6.66333 15.222 6.66333 15.0001C6.66333 14.7781 6.75149 14.5653 6.90841 14.4084L11.3251 10.0001L6.91675 5.59169C6.78022 5.43227 6.70888 5.22721 6.71698 5.01748C6.72508 4.80775 6.81203 4.6088 6.96044 4.46039C7.10886 4.31197 7.3078 4.22503 7.51753 4.21693C7.72726 4.20883 7.93232 4.28016 8.09174 4.41669L13.0918 9.41672C13.2457 9.57189 13.3325 9.78139 13.3334 10.0001Z" fill="#6F6F6F"/>
</svg>
