<svg width="20" height="20" viewBox="0 0 20 20" fill="none" xmlns="http://www.w3.org/2000/svg">
<path d="M6.66652 10C6.66588 9.89037 6.68691 9.78171 6.72838 9.68012C6.76985 9.57862 6.83095 9.48629 6.90818 9.40837L11.9082 4.4084C12.0651 4.25149 12.2779 4.16333 12.4998 4.16333C12.7218 4.16333 12.9346 4.25149 13.0915 4.4084C13.2484 4.56533 13.3366 4.77815 13.3366 5.00007C13.3366 5.22199 13.2484 5.43482 13.0915 5.59174L8.67484 10L13.0832 14.4084C13.2197 14.5678 13.291 14.7729 13.2829 14.9826C13.2748 15.1924 13.1879 15.3913 13.0395 15.5397C12.8911 15.6881 12.6921 15.775 12.4824 15.7832C12.2727 15.7913 12.0676 15.72 11.9082 15.5834L6.90818 10.5834C6.75423 10.4282 6.66744 10.2187 6.66652 10Z" fill="#6F6F6F"/>
</svg>
