<svg width="24" height="24" viewBox="0 0 24 24" fill="none" xmlns="http://www.w3.org/2000/svg">
<g clip-path="url(#clip0_527_1224)">
<path d="M10.3239 1.86221C5.65222 1.86224 1.84111 5.67139 1.84134 10.3433C1.84132 15.015 5.65247 18.8222 10.3245 18.8219C12.3055 18.8219 14.1272 18.1321 15.5731 16.9872L20.15 21.5626C20.5407 21.9525 21.1732 21.9533 21.5631 21.5626C21.9524 21.1725 21.9525 20.5396 21.5631 20.1494L16.9843 15.5721C18.12 14.1293 18.8034 12.3152 18.8034 10.3431C18.8034 5.67136 14.9958 1.86201 10.3239 1.86221ZM10.3239 3.86093C13.9155 3.86092 16.8042 6.75158 16.8044 10.3429C16.8044 13.9344 13.9157 16.823 10.3241 16.823C6.73262 16.8231 3.84 13.9344 3.83973 10.3432C3.83975 6.75167 6.73267 3.86119 10.3239 3.86093Z" fill="#504F4F"/>
</g>
<defs>
<clipPath id="clip0_527_1224">
<rect width="24" height="24" fill="white"/>
</clipPath>
</defs>
</svg>
