<svg width="635" height="460" viewBox="0 0 635 460" fill="none" xmlns="http://www.w3.org/2000/svg">
<path d="M91.1241 47.5163V239.815C91.1241 249.386 98.8945 257.155 108.467 257.155H346.478C356.05 257.155 363.821 249.386 363.821 239.815V47.5163C363.821 37.9455 356.05 30.1763 346.478 30.1763H108.467C98.8945 30.1763 91.1241 37.9455 91.1241 47.5163ZM346.703 248.26H108.223C104.675 248.26 101.804 245.388 101.804 241.842V45.4896C101.804 41.9427 104.675 39.0715 108.223 39.0715H346.703C350.251 39.0715 353.122 41.9427 353.122 45.4896V241.842C353.122 245.388 350.251 248.26 346.703 248.26Z" fill="#FADB96"/>
<path d="M525.592 361.045C503.913 361.045 486.345 378.61 486.345 400.286C486.345 421.961 503.913 439.526 525.592 439.526C547.27 439.526 564.838 421.961 564.838 400.286C564.838 378.61 547.27 361.045 525.592 361.045ZM525.592 429.749C509.3 429.749 496.105 416.556 496.105 400.267C496.105 383.978 509.3 370.785 525.592 370.785C541.883 370.785 555.078 383.978 555.078 400.267C555.078 416.556 541.883 429.749 525.592 429.749Z" fill="#FADB96"/>
<path d="M528.67 138.514V388.087C528.67 394.506 523.471 399.704 517.052 399.704H136.414C129.995 399.704 124.796 394.506 124.796 388.087V138.514C124.796 123.708 136.808 111.678 151.636 111.678H501.83C516.658 111.678 528.67 123.708 528.67 138.514Z" fill="white" stroke="#A6A4F7" stroke-miterlimit="10"/>
<path d="M528.67 138.514V139.64H124.815V138.514C124.815 123.708 136.827 111.678 151.655 111.678H501.849C516.676 111.678 528.689 123.708 528.689 138.514H528.67Z" fill="#383838"/>
<path d="M195.499 160.827H147.018C143.771 160.827 141.162 158.2 141.162 154.972C141.162 151.726 143.79 149.117 147.018 149.117H195.499C198.746 149.117 201.355 151.744 201.355 154.972C201.355 158.219 198.727 160.827 195.499 160.827Z" fill="#FFB450"/>
<path d="M374.538 159.589H353.178C351.283 159.589 349.744 158.05 349.744 156.155C349.744 154.259 351.283 152.72 353.178 152.72H374.538C376.433 152.72 377.972 154.259 377.972 156.155C377.972 158.05 376.433 159.589 374.538 159.589Z" fill="#F3F2F6"/>
<path d="M414.91 159.589H393.551C391.655 159.589 390.116 158.05 390.116 156.155C390.116 154.259 391.655 152.72 393.551 152.72H414.91C416.806 152.72 418.345 154.259 418.345 156.155C418.345 158.05 416.806 159.589 414.91 159.589Z" fill="#F3F2F6"/>
<path d="M455.902 159.589H434.543C432.647 159.589 431.108 158.05 431.108 156.155C431.108 154.259 432.647 152.72 434.543 152.72H455.902C457.798 152.72 459.337 154.259 459.337 156.155C459.337 158.05 457.798 159.589 455.902 159.589Z" fill="#F3F2F6"/>
<path d="M496.293 159.589H474.934C473.038 159.589 471.499 158.05 471.499 156.155C471.499 154.259 473.038 152.72 474.934 152.72H496.293C498.189 152.72 499.728 154.259 499.728 156.155C499.728 158.05 498.189 159.589 496.293 159.589Z" fill="#F3F2F6"/>
<path d="M322.679 195.995H164.605C162.366 195.995 160.551 197.81 160.551 200.049V300.618C160.551 302.856 162.366 304.671 164.605 304.671H322.679C324.918 304.671 326.733 302.856 326.733 300.618V200.049C326.733 197.81 324.918 195.995 322.679 195.995Z" fill="#F3F2F6"/>
<path d="M453.687 195.995H363.933C362.192 195.995 360.78 197.407 360.78 199.148V209.976C360.78 211.718 362.192 213.129 363.933 213.129H453.687C455.429 213.129 456.84 211.718 456.84 209.976V199.148C456.84 197.407 455.429 195.995 453.687 195.995Z" fill="#F3F2F6"/>
<path d="M428.067 233.81H363.821C362.131 233.81 360.78 232.44 360.78 230.77C360.78 229.081 362.15 227.729 363.821 227.729H428.067C429.757 227.729 431.108 229.099 431.108 230.77C431.108 232.459 429.738 233.81 428.067 233.81Z" fill="#F3F2F6"/>
<path d="M492.352 248.523H363.821C362.131 248.523 360.78 247.153 360.78 245.483C360.78 243.793 362.15 242.442 363.821 242.442H492.352C494.041 242.442 495.392 243.812 495.392 245.483C495.392 247.172 494.022 248.523 492.352 248.523Z" fill="#F3F2F6"/>
<path d="M492.352 263.236H363.821C362.131 263.236 360.78 261.866 360.78 260.195C360.78 258.506 362.15 257.155 363.821 257.155H492.352C494.041 257.155 495.392 258.525 495.392 260.195C495.392 261.885 494.022 263.236 492.352 263.236Z" fill="#F3F2F6"/>
<path d="M492.352 277.949H363.821C362.131 277.949 360.78 276.579 360.78 274.908C360.78 273.219 362.15 271.868 363.821 271.868H492.352C494.041 271.868 495.392 273.238 495.392 274.908C495.392 276.597 494.022 277.949 492.352 277.949Z" fill="#F3F2F6"/>
<path d="M404.324 309.457H367.406C363.746 309.457 360.78 306.492 360.78 302.832C360.78 299.173 363.746 296.208 367.406 296.208H404.324C407.984 296.208 410.95 299.173 410.95 302.832C410.95 306.492 407.984 309.457 404.324 309.457Z" fill="#FFB450"/>
<path d="M528.67 345.938V388.087C528.67 394.506 523.471 399.704 517.052 399.704H136.414C129.995 399.704 124.796 394.506 124.796 388.087V345.938H528.651H528.67Z" fill="#F3F2F6"/>
<path d="M421.329 370.334V399.704H232.136V370.334C232.136 366.938 234.895 364.179 238.293 364.179H415.192C418.589 364.179 421.348 366.938 421.348 370.334H421.329Z" fill="#383838"/>
<path d="M467.332 126.954C467.332 128.887 465.775 130.445 463.841 130.445C461.908 130.445 460.35 128.887 460.35 126.954C460.35 125.021 461.908 123.464 463.841 123.464C465.775 123.464 467.332 125.021 467.332 126.954Z" fill="#FFB450"/>
<path d="M486.439 126.954C486.439 128.887 484.881 130.445 482.948 130.445C481.015 130.445 479.457 128.887 479.457 126.954C479.457 125.021 481.015 123.464 482.948 123.464C484.881 123.464 486.439 125.021 486.439 126.954Z" fill="#FFB450"/>
<path d="M504.702 126.954C504.702 128.887 503.144 130.445 501.211 130.445C499.278 130.445 497.72 128.887 497.72 126.954C497.72 125.021 499.278 123.464 501.211 123.464C503.144 123.464 504.702 125.021 504.702 126.954Z" fill="#FFB450"/>
<path d="M528.67 138.514V388.087C528.67 394.506 523.471 399.704 517.052 399.704H136.414C129.995 399.704 124.796 394.506 124.796 388.087V138.514C124.796 123.708 136.808 111.678 151.636 111.678H501.83C516.658 111.678 528.67 123.708 528.67 138.514Z" stroke="#A6A4F7" stroke-miterlimit="10"/>
<g style="mix-blend-mode:multiply">
<path d="M206.404 100.587H51.6339C48.9595 100.587 46.7915 102.755 46.7915 105.429V221.499C46.7915 224.173 48.9595 226.341 51.6339 226.341H206.404C209.078 226.341 211.247 224.173 211.247 221.499V105.429C211.247 102.755 209.078 100.587 206.404 100.587Z" fill="#F3F2F6"/>
</g>
<path d="M187.522 83.0785H32.7518C30.0774 83.0785 27.9094 85.2462 27.9094 87.9202V203.971C27.9094 206.645 30.0774 208.813 32.7518 208.813H187.522C190.196 208.813 192.364 206.645 192.364 203.971V87.9202C192.364 85.2462 190.196 83.0785 187.522 83.0785Z" fill="#FFCC4D"/>
<path d="M192.365 161.878V203.99C192.365 206.673 190.187 208.832 187.522 208.832H32.7333C30.0681 208.832 27.8909 206.673 27.8909 203.99V163.473C27.8909 163.473 54.299 117.946 73.0306 117.946C96.3794 117.946 109.649 171.074 121.248 171.074C132.848 171.074 147.957 134.536 163.31 134.536C172.507 134.536 184.331 149.718 192.346 161.897L192.365 161.878Z" fill="#FFE7B0"/>
<path d="M171.249 109.107C171.249 115.019 166.463 119.823 160.532 119.823C154.601 119.823 149.815 115.019 149.815 109.107C149.815 103.196 154.601 98.3918 160.532 98.3918C166.463 98.3918 171.249 103.196 171.249 109.107Z" fill="#FFE7B0"/>
<g style="mix-blend-mode:multiply">
<path d="M572.139 201.231H482.554C480.833 201.231 479.438 202.626 479.438 204.346V326.102C479.438 327.823 480.833 329.217 482.554 329.217H572.139C573.86 329.217 575.255 327.823 575.255 326.102V204.346C575.255 202.626 573.86 201.231 572.139 201.231Z" fill="#F3F2F6"/>
</g>
<path d="M498.376 186.95H587.961C589.688 186.95 591.077 188.339 591.077 190.065V311.821C591.077 313.548 589.688 314.936 587.961 314.936H498.376C496.65 314.936 495.261 313.548 495.261 311.821V190.065C495.261 188.339 496.65 186.95 498.376 186.95Z" fill="#4C3EDB"/>
<path d="M574.429 200.856H511.928V209.301H574.429V200.856Z" fill="#9A90FC"/>
<path d="M556.26 301.35H530.077C527.468 301.35 525.347 299.229 525.347 296.62C525.347 294.012 527.468 291.891 530.077 291.891H556.26C558.869 291.891 560.99 294.012 560.99 296.62C560.99 299.229 558.869 301.35 556.26 301.35Z" fill="#FFCC4D"/>
<path d="M544.849 221.574H519.435C518.419 221.574 517.596 222.397 517.596 223.413V223.732C517.596 224.748 518.419 225.572 519.435 225.572H544.849C545.864 225.572 546.688 224.748 546.688 223.732V223.413C546.688 222.397 545.864 221.574 544.849 221.574Z" fill="#9A90FC"/>
<path d="M577.713 231.407H519.435C518.419 231.407 517.596 232.231 517.596 233.247V233.566C517.596 234.582 518.419 235.405 519.435 235.405H577.713C578.729 235.405 579.553 234.582 579.553 233.566V233.247C579.553 232.231 578.729 231.407 577.713 231.407Z" fill="#9A90FC"/>
<path d="M577.713 241.222H519.435C518.419 241.222 517.596 242.046 517.596 243.062V243.381C517.596 244.396 518.419 245.22 519.435 245.22H577.713C578.729 245.22 579.553 244.396 579.553 243.381V243.062C579.553 242.046 578.729 241.222 577.713 241.222Z" fill="#9A90FC"/>
<path d="M507.498 223.582C507.498 224.689 506.597 225.572 505.509 225.572C504.42 225.572 503.519 224.671 503.519 223.582C503.519 222.493 504.42 221.593 505.509 221.593C506.597 221.593 507.498 222.493 507.498 223.582Z" fill="#9A90FC"/>
<path d="M544.849 254.19H519.435C518.419 254.19 517.596 255.013 517.596 256.029V256.348C517.596 257.364 518.419 258.188 519.435 258.188H544.849C545.864 258.188 546.688 257.364 546.688 256.348V256.029C546.688 255.013 545.864 254.19 544.849 254.19Z" fill="#9A90FC"/>
<path d="M577.713 264.023H519.435C518.419 264.023 517.596 264.847 517.596 265.863V266.182C517.596 267.198 518.419 268.021 519.435 268.021H577.713C578.729 268.021 579.553 267.198 579.553 266.182V265.863C579.553 264.847 578.729 264.023 577.713 264.023Z" fill="#9A90FC"/>
<path d="M577.713 273.838H519.435C518.419 273.838 517.596 274.662 517.596 275.677V275.997C517.596 277.012 518.419 277.836 519.435 277.836H577.713C578.729 277.836 579.553 277.012 579.553 275.997V275.677C579.553 274.662 578.729 273.838 577.713 273.838Z" fill="#9A90FC"/>
<path d="M507.498 256.198C507.498 257.305 506.597 258.187 505.509 258.187C504.42 258.187 503.519 257.287 503.519 256.198C503.519 255.109 504.42 254.208 505.509 254.208C506.597 254.208 507.498 255.109 507.498 256.198Z" fill="#9A90FC"/>
<path d="M633.157 184.21L587.323 222.006C586.967 222.306 586.591 222.569 586.197 222.831C585.221 223.469 584.17 223.938 583.044 224.257L575.63 226.359C574.729 226.622 573.96 225.684 574.391 224.858L577.864 217.971C578.389 216.957 579.046 216.019 579.834 215.193C580.153 214.837 580.51 214.518 580.885 214.199L626.494 176.591C628.615 174.846 631.806 174.865 633.664 176.891C635.635 179.049 635.391 182.39 633.157 184.229V184.21Z" fill="#FFCC4D"/>
<path d="M586.197 222.831C585.221 223.469 584.17 223.938 583.044 224.257L578.708 225.496L575.63 226.359C574.729 226.622 573.96 225.684 574.391 224.858L575.836 222.005L577.864 217.971C578.389 216.957 579.046 216.019 579.834 215.193C581.486 215.681 585.352 217.389 586.197 222.831Z" fill="#FFE7B0"/>
<path d="M578.708 225.497L575.63 226.36C574.729 226.623 573.96 225.684 574.391 224.858L575.836 222.006C577.207 222.156 579.027 222.813 578.708 225.497Z" fill="#FFCC4D"/>
<g style="mix-blend-mode:multiply">
<path d="M433.454 9.9649H317.067C312.91 9.9649 309.54 13.3341 309.54 17.4902V97.0218C309.54 101.178 312.91 104.547 317.067 104.547H433.454C437.611 104.547 440.98 101.178 440.98 97.0218V17.4902C440.98 13.3341 437.611 9.9649 433.454 9.9649Z" fill="#F3F2F6"/>
</g>
<path d="M423.938 0H307.551C303.394 0 300.024 3.36918 300.024 7.52528V87.0569C300.024 91.2131 303.394 94.5822 307.551 94.5822H423.938C428.095 94.5822 431.465 91.2131 431.465 87.0569V7.52528C431.465 3.36918 428.095 0 423.938 0Z" fill="#6E52FF"/>
<path d="M431.464 76.3977V87.0382C431.464 91.2043 428.086 94.5635 423.938 94.5635H307.57C303.403 94.5635 300.043 91.1856 300.043 87.0382V76.3977H431.483H431.464Z" fill="#4C3EDB"/>
<path d="M369.808 86.3817C369.808 87.2638 370.071 88.0709 370.54 88.7654H311.755C310.441 88.7654 309.371 87.7143 309.371 86.3817C309.371 85.0491 310.441 83.998 311.755 83.998H370.54C370.071 84.6737 369.808 85.4995 369.808 86.3817Z" fill="#6E52FF"/>
<path d="M390.116 86.3817C390.116 87.6955 389.046 88.7654 387.733 88.7654H370.54C370.071 88.0897 369.808 87.2638 369.808 86.3817C369.808 85.4995 370.071 84.6925 370.54 83.998H387.733C389.046 83.998 390.116 85.0678 390.116 86.3817Z" fill="#8F83FF"/>
<path d="M378.254 86.3813C378.254 87.2633 377.991 88.0703 377.522 88.7647C376.771 89.8719 375.495 90.6037 374.031 90.6037C372.567 90.6037 371.31 89.8719 370.559 88.7647C370.09 88.0891 369.827 87.2633 369.827 86.3813C369.827 85.4993 370.09 84.6923 370.559 83.998C371.31 82.8908 372.586 82.1589 374.031 82.1589C375.476 82.1589 376.771 82.8908 377.522 83.998C377.991 84.6736 378.254 85.4993 378.254 86.3813Z" fill="white"/>
<path d="M376.096 86.3816C376.096 87.5266 375.176 88.4463 374.031 88.4463C372.886 88.4463 371.967 87.5266 371.967 86.3816C371.967 85.2367 372.886 84.317 374.031 84.317C375.176 84.317 376.096 85.2367 376.096 86.3816Z" fill="#6E52FF"/>
<path d="M407.853 88.4839V84.5236C407.853 83.9981 408.397 83.6602 408.866 83.9042L412.827 85.8938C413.333 86.1565 413.333 86.8885 412.827 87.1325L408.866 89.1221C408.397 89.3473 407.853 89.0094 407.853 88.5027V88.4839Z" fill="#8F83FF"/>
<path d="M418.533 87.7144V85.2931C418.533 84.9741 418.795 84.7676 419.021 84.9178L420.935 86.1377C421.179 86.2879 421.179 86.7384 420.935 86.9073L419.021 88.1273C418.795 88.2774 418.533 88.071 418.533 87.7519V87.7144Z" fill="#8F83FF"/>
<path d="M421.123 87.7144V85.2931C421.123 84.9741 421.386 84.7676 421.611 84.9178L423.525 86.1377C423.769 86.2879 423.769 86.7384 423.525 86.9073L421.611 88.1273C421.386 88.2774 421.123 88.071 421.123 87.7519V87.7144Z" fill="#8F83FF"/>
<path d="M402.973 87.7144V85.2931C402.973 84.9741 402.71 84.7676 402.485 84.9178L400.571 86.1377C400.327 86.2879 400.327 86.7384 400.571 86.9073L402.485 88.1273C402.71 88.2774 402.973 88.071 402.973 87.7519V87.7144Z" fill="#8F83FF"/>
<path d="M400.383 87.7144V85.2931C400.383 84.9741 400.12 84.7676 399.895 84.9178L397.98 86.1377C397.736 86.2879 397.736 86.7384 397.98 86.9073L399.895 88.1273C400.12 88.2774 400.383 88.071 400.383 87.7519V87.7144Z" fill="#8F83FF"/>
<path d="M388.588 44.8555C391.577 32.2709 383.797 19.6461 371.211 16.6572C358.624 13.6684 345.997 21.4474 343.008 34.0321C340.019 46.6168 347.799 59.2416 360.386 62.2304C372.972 65.2192 385.599 57.4402 388.588 44.8555Z" fill="#FBF8FF"/>
<path d="M359.56 46.5968V32.1842C359.56 30.5891 361.324 29.632 362.657 30.4953L373.73 37.7015C374.95 38.4897 374.95 40.2725 373.73 41.0607L362.657 48.267C361.324 49.1302 359.56 48.1731 359.56 46.578V46.5968Z" fill="#6E52FF"/>
<g style="mix-blend-mode:multiply">
<path d="M147.957 343.142H58.5596C53.2834 343.142 49.0062 347.419 49.0062 352.694V423.987C49.0062 429.263 53.2834 433.539 58.5596 433.539H147.957C153.233 433.539 157.51 429.263 157.51 423.987V352.694C157.51 347.419 153.233 343.142 147.957 343.142Z" fill="#F3F2F6"/>
</g>
<path d="M135.832 330.343H46.4348C41.1586 330.343 36.8813 334.62 36.8813 339.896V411.189C36.8813 416.464 41.1586 420.741 46.4348 420.741H135.832C141.108 420.741 145.386 416.464 145.386 411.189V339.896C145.386 334.62 141.108 330.343 135.832 330.343Z" fill="#FCFAFF"/>
<path d="M83.0911 406.422H78.9243C78.136 406.422 77.5354 405.69 77.7231 404.902L82.2277 384.972C82.3591 384.409 82.8658 383.996 83.4289 383.996H90.4298C91.2181 383.996 91.8187 384.728 91.631 385.516L87.7458 402.688C87.2578 404.865 85.3058 406.422 83.0723 406.422H83.0911Z" fill="#6E52FF"/>
<path d="M119.297 378.366H115.355V364.798H119.297C123.05 364.798 126.072 367.838 126.072 371.573C126.072 375.326 123.032 378.348 119.297 378.348V378.366Z" fill="#FFCC4D"/>
<path d="M71.4353 357.104H82.0962V386.473H71.4353C67.1184 386.473 63.6086 382.964 63.6086 378.648V364.93C63.6086 360.614 67.1184 357.104 71.4353 357.104Z" fill="#FFCC4D"/>
<path d="M82.0961 357.104L117.814 351.249C119.597 350.949 121.211 352.338 121.211 354.139V389.026C121.211 390.808 119.616 392.197 117.851 391.916L82.0961 386.473V357.104Z" fill="#FFE7B0"/>
<path d="M77.2725 364.123H70.1215C69.6898 364.123 69.3331 363.766 69.3331 363.335C69.3331 362.903 69.6898 362.546 70.1215 362.546H77.2725C77.7042 362.546 78.0608 362.903 78.0608 363.335C78.0608 363.766 77.7042 364.123 77.2725 364.123Z" fill="#FFE7B0"/>
<path d="M77.2725 367.088H70.1215C69.6898 367.088 69.3331 366.732 69.3331 366.3C69.3331 365.868 69.6898 365.512 70.1215 365.512H77.2725C77.7042 365.512 78.0608 365.868 78.0608 366.3C78.0608 366.732 77.7042 367.088 77.2725 367.088Z" fill="#FFE7B0"/>
<g style="mix-blend-mode:multiply">
<path d="M366.28 348.078H432.685L450.027 365.587V457.316C450.027 458.799 448.826 460 447.343 460H365.66C364.177 460 362.976 458.799 362.976 457.316V351.381C362.976 349.56 364.459 348.078 366.28 348.078Z" fill="#F3F2F6"/>
</g>
<path d="M356.444 338.263H422.85L440.192 355.772V447.502C440.192 448.984 438.991 450.185 437.508 450.185H355.825C354.342 450.185 353.141 448.984 353.141 447.502V341.566C353.141 339.745 354.624 338.263 356.444 338.263Z" fill="#FFCC4D"/>
<path d="M422.85 338.263V352.769C422.85 354.421 424.182 355.772 425.853 355.772H440.211L422.868 338.263H422.85Z" fill="#FFE7B0"/>
<path d="M363.971 388.744C364.891 387.13 366.148 385.873 367.762 384.953C369.358 384.053 371.159 383.602 373.149 383.602C375.476 383.602 377.503 384.203 379.249 385.385C380.994 386.567 382.215 388.219 382.909 390.321H378.104C377.635 389.326 376.959 388.575 376.096 388.087C375.232 387.581 374.238 387.337 373.112 387.337C371.892 387.337 370.822 387.618 369.883 388.181C368.945 388.744 368.213 389.551 367.687 390.583C367.162 391.615 366.899 392.835 366.899 394.224C366.899 395.613 367.162 396.795 367.687 397.846C368.213 398.897 368.945 399.685 369.883 400.267C370.822 400.83 371.91 401.111 373.112 401.111C374.238 401.111 375.251 400.867 376.096 400.361C376.959 399.854 377.635 399.103 378.104 398.109H382.909C382.215 400.229 380.995 401.881 379.268 403.063C377.522 404.245 375.495 404.827 373.149 404.827C371.159 404.827 369.376 404.377 367.762 403.476C366.167 402.575 364.909 401.318 363.971 399.704C363.051 398.09 362.582 396.269 362.582 394.224C362.582 392.178 363.051 390.339 363.971 388.725V388.744Z" fill="white"/>
<path d="M410.631 383.865V404.658H406.464V391.128L400.89 404.658H397.737L392.143 391.128V404.658H387.977V383.865H392.706L399.313 399.329L405.92 383.865H410.631Z" fill="white"/>
<path d="M419.49 404.114C418.326 403.626 417.407 402.913 416.731 401.975C416.055 401.036 415.699 399.948 415.68 398.672H420.147C420.203 399.516 420.504 400.211 421.048 400.698C421.592 401.186 422.343 401.449 423.3 401.449C424.258 401.449 425.046 401.224 425.59 400.755C426.153 400.286 426.416 399.685 426.416 398.916C426.416 398.296 426.228 397.79 425.853 397.396C425.478 397.001 425.008 396.682 424.445 396.457C423.882 396.232 423.094 395.969 422.099 395.707C420.748 395.312 419.659 394.918 418.814 394.524C417.97 394.13 417.238 393.548 416.637 392.76C416.037 391.972 415.736 390.921 415.736 389.626C415.736 388.388 416.037 387.318 416.656 386.417C417.275 385.498 418.139 384.803 419.246 384.315C420.353 383.827 421.63 383.584 423.056 383.584C425.196 383.584 426.941 384.109 428.293 385.141C429.625 386.192 430.376 387.637 430.508 389.514H425.928C425.89 388.801 425.59 388.2 425.027 387.75C424.464 387.281 423.713 387.055 422.775 387.055C421.968 387.055 421.311 387.262 420.823 387.675C420.335 388.087 420.091 388.688 420.091 389.495C420.091 390.058 420.278 390.508 420.635 390.884C421.01 391.259 421.461 391.54 422.005 391.784C422.55 392.028 423.319 392.272 424.314 392.573C425.665 392.967 426.773 393.361 427.617 393.774C428.462 394.168 429.213 394.768 429.813 395.556C430.433 396.345 430.733 397.396 430.733 398.69C430.733 399.798 430.451 400.83 429.87 401.787C429.288 402.744 428.443 403.495 427.336 404.058C426.228 404.621 424.896 404.902 423.375 404.902C421.93 404.902 420.616 404.658 419.453 404.151L419.49 404.114Z" fill="white"/>
<path d="M70.0089 278.68C68.0945 278.68 66.5366 277.122 66.5366 275.208C66.5366 273.294 68.0945 271.736 70.0089 271.736C71.9234 271.736 73.4812 273.294 73.4812 275.208C73.4812 277.122 71.9234 278.68 70.0089 278.68Z" fill="#A6A4F7"/>
<path d="M53.3793 278.68C51.4649 278.68 49.9071 277.122 49.9071 275.208C49.9071 273.294 51.4649 271.736 53.3793 271.736C55.2938 271.736 56.8516 273.294 56.8516 275.208C56.8516 277.122 55.2938 278.68 53.3793 278.68Z" fill="#A6A4F7"/>
<path d="M36.75 278.68C34.8356 278.68 33.2777 277.122 33.2777 275.208C33.2777 273.294 34.8356 271.736 36.75 271.736C38.6645 271.736 40.2223 273.294 40.2223 275.208C40.2223 277.122 38.6645 278.68 36.75 278.68Z" fill="#A6A4F7"/>
<path d="M20.1018 278.68C18.1873 278.68 16.6295 277.122 16.6295 275.208C16.6295 273.294 18.1873 271.736 20.1018 271.736C22.0162 271.736 23.5741 273.294 23.5741 275.208C23.5741 277.122 22.0162 278.68 20.1018 278.68Z" fill="#A6A4F7"/>
<path d="M3.4723 278.68C1.55785 278.68 0 277.122 0 275.208C0 273.294 1.55785 271.736 3.4723 271.736C5.38675 271.736 6.9446 273.294 6.9446 275.208C6.9446 277.122 5.38675 278.68 3.4723 278.68Z" fill="#A6A4F7"/>
<path d="M80.5759 293.486C78.6614 293.486 77.1036 291.929 77.1036 290.015C77.1036 288.101 78.6614 286.543 80.5759 286.543C82.4903 286.543 84.0482 288.101 84.0482 290.015C84.0482 291.929 82.4903 293.486 80.5759 293.486Z" fill="#A6A4F7"/>
<path d="M63.9276 293.486C62.0132 293.486 60.4553 291.929 60.4553 290.015C60.4553 288.101 62.0132 286.543 63.9276 286.543C65.8421 286.543 67.3999 288.101 67.3999 290.015C67.3999 291.929 65.8421 293.486 63.9276 293.486Z" fill="#A6A4F7"/>
<path d="M47.2982 293.486C45.3837 293.486 43.8259 291.929 43.8259 290.015C43.8259 288.101 45.3837 286.543 47.2982 286.543C49.2126 286.543 50.7705 288.101 50.7705 290.015C50.7705 291.929 49.2126 293.486 47.2982 293.486Z" fill="#A6A4F7"/>
<path d="M30.6688 293.486C32.5865 293.486 34.1411 291.932 34.1411 290.015C34.1411 288.097 32.5865 286.543 30.6688 286.543C28.7511 286.543 27.1965 288.097 27.1965 290.015C27.1965 291.932 28.7511 293.486 30.6688 293.486Z" fill="#A6A4F7"/>
<path d="M14.0205 293.486C15.9382 293.486 17.4928 291.932 17.4928 290.015C17.4928 288.097 15.9382 286.543 14.0205 286.543C12.1028 286.543 10.5482 288.097 10.5482 290.015C10.5482 291.932 12.1028 293.486 14.0205 293.486Z" fill="#A6A4F7"/>
<path d="M90.1295 308.293C92.0472 308.293 93.6018 306.739 93.6018 304.821C93.6018 302.904 92.0472 301.35 90.1295 301.35C88.2118 301.35 86.6572 302.904 86.6572 304.821C86.6572 306.739 88.2118 308.293 90.1295 308.293Z" fill="#A6A4F7"/>
<path d="M73.4813 308.293C75.399 308.293 76.9535 306.739 76.9535 304.821C76.9535 302.904 75.399 301.35 73.4813 301.35C71.5636 301.35 70.009 302.904 70.009 304.821C70.009 306.739 71.5636 308.293 73.4813 308.293Z" fill="#A6A4F7"/>
<path d="M56.8517 308.293C54.9372 308.293 53.3794 306.735 53.3794 304.821C53.3794 302.907 54.9372 301.35 56.8517 301.35C58.7661 301.35 60.324 302.907 60.324 304.821C60.324 306.735 58.7661 308.293 56.8517 308.293Z" fill="#A6A4F7"/>
<path d="M40.2223 308.293C38.3078 308.293 36.75 306.735 36.75 304.821C36.75 302.907 38.3078 301.35 40.2223 301.35C42.1367 301.35 43.6946 302.907 43.6946 304.821C43.6946 306.735 42.1367 308.293 40.2223 308.293Z" fill="#A6A4F7"/>
<path d="M23.574 308.293C21.6595 308.293 20.1017 306.735 20.1017 304.821C20.1017 302.907 21.6595 301.35 23.574 301.35C25.4884 301.35 27.0462 302.907 27.0462 304.821C27.0462 306.735 25.4884 308.293 23.574 308.293Z" fill="#A6A4F7"/>
<path d="M251.563 431.982H196.738C194.579 431.982 192.815 430.237 192.815 428.06C192.815 425.902 194.561 424.138 196.738 424.138H251.563C253.721 424.138 255.485 425.883 255.485 428.06C255.485 430.218 253.74 431.982 251.563 431.982Z" fill="#FADB96"/>
<path d="M251.563 451.555H196.738C194.579 451.555 192.815 449.81 192.815 447.633C192.815 445.475 194.561 443.711 196.738 443.711H251.563C253.721 443.711 255.485 445.456 255.485 447.633C255.485 449.791 253.74 451.555 251.563 451.555Z" fill="#FADB96"/>
<path d="M561.384 59.8458L573.359 57.5938V46.8595L561.384 44.7952C560.465 40.3851 558.719 36.2565 556.317 32.5971L563.186 22.5196L555.585 14.9192L545.656 21.9378C541.996 19.5357 537.885 17.8092 533.456 16.8897L531.204 4.91676H520.468L518.403 16.8897C513.992 17.8092 509.863 19.5545 506.203 21.9566L496.143 15.0881L488.541 22.6885L495.561 32.6159C493.159 36.2753 491.432 40.4039 490.512 44.814L478.537 47.0659V57.8003L490.512 59.8645C491.432 64.2934 493.177 68.4032 495.58 72.0626L488.71 82.1214L496.312 89.7217L506.26 82.7031C509.919 85.1052 514.03 86.8505 518.459 87.7513L520.712 99.7242H531.448L533.512 87.7513C537.942 86.8317 542.052 85.0865 545.712 82.6844L555.772 89.5529L563.374 81.9525L556.354 72.0251C558.757 68.3657 560.483 64.2559 561.403 59.827L561.384 59.8458ZM525.93 74.5586C513.654 74.5586 503.707 64.5937 503.707 52.3392C503.707 40.0848 513.654 30.1199 525.93 30.1199C538.205 30.1199 548.152 40.0661 548.152 52.3392C548.152 64.6124 538.205 74.5586 525.93 74.5586Z" stroke="#A6A4F7" stroke-miterlimit="10"/>
<path d="M602.714 129.713L609.621 132.134L612.849 126.56L607.237 121.887C608.082 119.316 608.42 116.633 608.27 114.024L614.877 110.853L613.206 104.622L605.942 105.298C604.76 102.952 603.127 100.813 601.119 99.0111L603.54 92.1051L597.966 88.8773L593.292 94.4884C590.721 93.6439 588.037 93.3061 585.428 93.4563L582.256 86.8693L576.024 88.5395L576.7 95.8208C574.354 97.0031 572.214 98.6358 570.412 100.644L563.505 98.2229L560.277 103.797L565.889 108.469C565.044 111.059 564.707 113.705 564.857 116.332L558.269 119.504L559.939 125.734L567.222 125.059C568.404 127.405 570.018 129.544 572.045 131.345L569.624 138.251L575.199 141.479L579.872 135.868C582.462 136.713 585.109 137.05 587.736 136.9L590.908 143.487L597.14 141.817L596.464 134.536C598.81 133.353 600.95 131.74 602.752 129.713H602.714ZM579.872 126.729C573.491 123.051 571.313 114.887 574.992 108.507C578.671 102.126 586.835 99.9494 593.217 103.628C599.598 107.306 601.776 115.469 598.097 121.85C594.418 128.23 586.254 130.426 579.872 126.748V126.729Z" stroke="#FADB96" stroke-miterlimit="10"/>
</svg>
